<?xml version="1.0" standalone="no"?>
<!DOCTYPE svg PUBLIC "-//W3C//DTD SVG 20010904//EN"
 "http://www.w3.org/TR/2001/REC-SVG-20010904/DTD/svg10.dtd">
<svg version="1.0" xmlns="http://www.w3.org/2000/svg"
 width="7000.000000pt" height="5000.000000pt" viewBox="0 0 7000.000000 5000.000000"
 preserveAspectRatio="xMidYMid meet">

<g transform="translate(0.000000,5000.000000) scale(0.100000,-0.100000)"
fill="#000000" stroke="none">
<path d="M10793 37888 c-222 -430 -402 -782 -400 -784 1 -1 835 -430 1852
-954 1018 -524 1927 -992 2020 -1040 94 -48 622 -320 1175 -605 553 -284 1082
-557 1175 -605 94 -48 1151 -593 2350 -1210 1199 -617 2559 -1318 3022 -1556
463 -239 846 -434 850 -434 7 0 107 192 655 1260 l156 305 -971 500 c-534 275
-1077 554 -1207 621 -129 66 -775 399 -1435 738 -660 340 -1283 661 -1385 713
-102 53 -248 128 -325 168 -77 40 -972 501 -1990 1025 -1017 524 -1922 989
-2010 1035 -88 45 -621 320 -1185 610 -564 290 -1229 633 -1478 761 -249 129
-456 234 -460 234 -4 0 -188 -352 -409 -782z"/>
<path d="M43038 34316 c-86 -6 -159 -14 -162 -17 -3 -3 16 -154 43 -335 27
-181 46 -332 43 -336 -4 -4 -243 -68 -532 -144 -289 -75 -528 -140 -531 -143
-4 -3 -1 -231 6 -506 7 -275 11 -501 10 -503 -2 -2 -172 -79 -379 -171 -207
-93 -380 -171 -383 -175 -4 -4 146 -359 163 -384 2 -4 1018 447 1025 456 3 4
0 219 -6 477 -7 259 -9 474 -5 478 4 4 253 73 554 152 302 79 550 146 553 149
5 5 -132 960 -143 999 -6 20 -15 20 -256 3z"/>
<path d="M45150 31224 c-2333 -502 -4365 -1051 -6530 -1766 -3077 -1016 -6175
-2321 -9052 -3815 l-298 -154 -227 45 c-1685 333 -3673 637 -5488 840 -518 58
-1163 122 -1168 116 -3 -3 -7 -43 -10 -90 -3 -47 -105 -1246 -227 -2664 -121
-1418 -219 -2580 -217 -2582 2 -2 772 -5 1712 -6 l1708 -3 -6 105 c-6 93 -26
230 -42 281 -5 15 21 26 177 78 635 209 1613 507 2383 725 4226 1194 8492
1936 12875 2237 l175 12 65 85 c67 88 326 357 415 431 l50 42 -75 -6 c-41 -3
-221 -15 -400 -26 -1448 -89 -3148 -260 -4615 -464 -181 -26 -351 -49 -378
-52 l-47 -6 16 44 c21 58 21 190 0 249 -58 159 -199 250 -366 237 -117 -10
-390 -82 -542 -144 -33 -13 -62 -22 -65 -20 -4 5 -110 277 -164 422 -16 44
-33 86 -38 94 -7 11 -40 -1 -167 -59 -88 -40 -219 -99 -291 -133 -73 -33 -133
-65 -133 -71 0 -7 49 -137 110 -291 l110 -278 -22 -16 c-91 -64 -253 -215
-330 -309 l-28 -33 -323 -59 c-3242 -591 -6435 -1431 -9550 -2514 -136 -47
-251 -86 -255 -86 -5 0 -16 15 -25 34 l-16 35 122 79 c67 44 239 156 382 249
828 540 1887 1192 2710 1668 379 220 972 555 1195 677 25 14 115 63 200 110
163 90 175 96 470 255 956 516 2321 1197 3305 1650 149 69 299 138 335 155 36
16 189 85 340 153 3127 1399 6237 2497 9500 3354 265 69 1023 261 1033 261 2
0 10 -26 16 -57 7 -32 29 -98 47 -147 184 -479 626 -806 1157 -855 117 -11
296 -3 390 19 23 5 42 8 43 7 2 -2 1 4 458 -2397 168 -883 308 -1613 310
-1623 4 -17 -16 -17 -432 -11 -241 4 -435 4 -432 2 3 -3 52 -43 110 -89 120
-94 304 -271 386 -369 l56 -67 396 -7 c218 -3 483 -9 588 -13 l191 -6 6 -106
c24 -482 329 -935 781 -1163 172 -86 320 -128 584 -165 32 -4 33 -4 27 -51 -8
-74 -89 -2051 -84 -2054 2 -2 121 -2 264 0 l261 3 100 1982 c55 1090 99 1984
98 1986 -10 13 -1253 71 -1979 92 -220 6 -401 13 -403 14 -3 2 -1080 5876
-1098 5988 -4 20 -9 37 -13 36 -3 0 -58 -12 -121 -25z m-20190 -5549 c1104
-148 2127 -310 3260 -516 151 -28 283 -53 294 -56 14 -4 5 -12 -40 -38 -744
-412 -947 -525 -1148 -640 -673 -384 -945 -545 -1686 -994 -147 -90 -601 -372
-905 -563 -539 -340 -1370 -890 -2140 -1418 -55 -38 -100 -68 -101 -67 -1 1
27 304 62 672 34 369 99 1064 144 1545 44 481 83 890 86 909 l5 34 87 -6 c119
-7 305 9 437 38 447 101 815 386 999 776 47 99 90 232 101 314 3 28 8 56 11
64 5 17 -4 17 534 -54z"/>
<path d="M51845 30764 c-304 -33 -532 -96 -758 -211 -238 -122 -427 -305 -512
-498 -52 -116 -67 -191 -71 -344 -3 -116 -8 -155 -25 -200 -79 -209 -110 -376
-117 -619 -5 -220 6 -332 48 -497 38 -148 59 -193 134 -289 129 -165 251 -261
354 -282 28 -6 32 -4 32 14 0 12 7 99 15 194 8 95 19 242 25 325 l10 153 -40
52 c-112 148 -190 386 -190 584 0 44 -4 54 -35 84 -121 118 -156 353 -64 439
27 25 95 29 125 6 32 -24 39 -18 57 53 46 176 135 341 241 448 130 130 261
183 471 191 72 2 135 1 140 -4 6 -4 28 -51 49 -103 178 -437 405 -788 573
-887 41 -24 48 -25 98 -15 68 14 115 1 149 -39 102 -121 22 -397 -136 -472
-40 -19 -100 -22 -128 -7 -15 8 -20 4 -31 -22 -26 -63 -112 -182 -182 -252
-81 -81 -158 -136 -263 -189 -39 -20 -74 -43 -78 -52 -3 -9 -6 -127 -6 -262
l0 -246 243 6 c718 20 1278 26 1637 19 218 -5 401 -11 407 -15 5 -3 16 -41 22
-83 l13 -76 746 7 c682 6 1125 14 1758 32 l231 6 -19 91 c-131 605 -559 1102
-1098 1276 -97 32 -293 70 -358 70 -36 0 -38 2 -94 104 -248 448 -681 766
-1163 852 -175 31 -458 21 -610 -21 -16 -5 -29 6 -60 46 -59 78 -189 205 -285
280 -228 177 -475 287 -755 335 -87 15 -418 27 -500 18z"/>
<path d="M20517 28953 c-2 -5 -114 -503 -248 -1107 l-244 -1099 -185 -176
c-842 -799 -1575 -1432 -1729 -1493 -56 -22 -556 -178 -571 -178 -9 0 -19 -3
-23 -6 -3 -3 21 -83 54 -178 289 -829 581 -1917 763 -2851 156 -800 236 -1363
381 -2695 56 -514 90 -706 170 -959 32 -101 29 -112 -48 -171 -49 -36 -56 -46
-62 -88 -21 -146 -290 -1645 -413 -2304 l-39 -207 664 -603 663 -603 -123
-125 c-391 -397 -1853 -1877 -2144 -2170 l-343 -345 313 -321 c172 -176 332
-337 355 -358 l41 -37 233 172 c924 684 1920 1444 2551 1946 147 117 269 213
272 213 3 0 6 -1047 7 -2327 l3 -2328 22 -77 c49 -170 139 -330 257 -455 52
-55 63 -72 50 -77 -8 -3 -1424 -6 -3146 -6 l-3130 0 -33 -29 c-19 -16 -60 -39
-92 -51 -158 -59 -337 -75 -787 -67 -462 8 -930 43 -1476 110 l-255 31 -884 3
-884 3 -41 -24 c-138 -81 -121 -320 27 -375 20 -8 4929 -11 16644 -11 l16615
0 -7 27 c-43 171 -21 324 67 470 65 108 206 214 329 247 l54 15 -70 0 c-146 2
-288 63 -395 171 -314 315 -173 838 260 967 46 13 128 17 495 20 l440 5 -55
19 c-175 61 -318 220 -365 404 -19 76 -19 204 0 280 51 201 219 369 420 420
52 13 519 15 4093 15 3650 0 4040 -2 4096 -16 236 -61 412 -271 433 -518 5
-67 9 -77 27 -81 51 -11 397 -25 614 -25 977 0 1914 196 2982 622 747 298
1554 738 2078 1134 l86 65 223 1022 c122 562 219 1025 215 1028 -4 3 -537 108
-1184 233 l-1176 226 -174 -114 c-247 -162 -437 -272 -723 -416 -659 -334
-1259 -528 -1895 -616 -158 -21 -593 -30 -757 -15 -379 36 -848 155 -1196 304
l-122 52 3 80 c57 1714 62 2043 37 2275 -25 241 -67 475 -150 845 -50 227 -54
249 -58 410 l-4 170 25 -55 c323 -692 591 -1131 777 -1271 144 -108 382 -107
645 5 536 228 1295 948 2166 2056 276 351 438 570 428 579 -5 4 -70 64 -144
132 -334 308 -583 499 -649 499 -18 0 -105 -80 -360 -333 -443 -438 -1032
-986 -1318 -1225 l-51 -43 -6 53 c-3 29 -12 188 -21 353 -82 1573 -210 3096
-295 3516 -54 266 -210 608 -377 830 -130 173 -252 284 -551 503 -67 49 -152
118 -188 153 l-66 64 -46 -30 c-217 -139 -1098 -399 -1677 -495 -285 -47 -515
-54 -561 -15 -8 6 -14 8 -14 5 0 -4 18 -130 39 -279 42 -288 126 -927 186
-1417 20 -162 39 -312 42 -332 l6 -38 -2663 0 -2663 0 -91 -59 c-392 -252
-782 -397 -1246 -463 -62 -8 -191 -13 -370 -12 -231 0 -297 4 -415 22 -430 67
-830 217 -1174 442 l-108 70 -9651 0 -9652 0 0 -530 0 -530 8101 0 8101 0 113
85 c1051 789 2480 790 3527 3 l117 -88 4103 2 4104 3 183 -1465 c201 -1614
404 -3262 591 -4800 68 -553 125 -1007 127 -1009 2 -3 29 -6 61 -8 31 -1 170
-8 307 -14 138 -6 257 -13 265 -15 8 -1 38 -3 65 -3 l50 -1 0 -367 0 -368 27
-80 c15 -43 26 -80 25 -81 -1 -1 -31 -11 -67 -22 -273 -89 -558 -103 -873 -42
-60 12 -118 18 -130 14 -12 -3 -96 -39 -187 -78 l-165 -71 -3220 -5 -3220 -5
-80 -32 c-144 -59 -261 -168 -329 -309 -47 -95 -66 -178 -66 -289 0 -116 20
-204 65 -296 82 -167 216 -281 388 -330 62 -17 58 -18 -398 -18 -564 -1 -605
-7 -750 -96 -193 -120 -299 -320 -298 -560 1 -180 63 -327 192 -455 121 -121
263 -179 435 -181 l81 0 -73 -19 c-203 -53 -363 -203 -431 -402 l-18 -53
-3884 -3 -3885 -2 63 66 c157 166 254 373 282 600 14 119 14 6525 0 6629 -61
436 -375 781 -804 881 -78 18 -270 19 -6585 19 l-6505 0 -90 -24 c-232 -61
-433 -192 -566 -369 -24 -31 -46 -61 -50 -65 -4 -5 -77 95 -162 221 -378 559
-896 1277 -1371 1902 l-147 194 58 12 c94 19 203 55 203 67 0 6 -31 198 -70
426 -262 1563 -512 3336 -661 4690 l-43 384 39 31 c78 62 263 224 405 355 570
525 1674 1641 1913 1933 50 61 55 72 61 130 27 273 169 2749 158 2759 -6 6
-812 169 -834 169 -4 0 -9 -3 -11 -7z m14143 -14143 l0 -200 -3235 0 -3235 0
0 200 0 200 3235 0 3235 0 0 -200z m-9260 -1395 l0 -1065 -1825 0 -1825 0 0
1065 0 1065 1825 0 1825 0 0 -1065z m26799 -2355 c0 -8 -7 1 -14 20 -18 46
-17 64 0 25 8 -16 14 -37 14 -45z m28 -112 c-3 -8 -6 -5 -6 6 -1 11 2 17 5 13
3 -3 4 -12 1 -19z m10 -60 c-3 -8 -6 -5 -6 6 -1 11 2 17 5 13 3 -3 4 -12 1
-19z m-18057 -638 l0 -250 -5945 0 -5945 0 0 250 0 250 5945 0 5945 0 0 -250z
m0 -1150 l0 -250 -5945 0 -5945 0 0 250 0 250 5945 0 5945 0 0 -250z"/>
<path d="M16612 28020 c-303 -43 -581 -187 -748 -388 -65 -78 -145 -237 -168
-333 -26 -108 -31 -240 -12 -347 60 -343 347 -783 811 -1242 l137 -135 -7 75
c-9 101 -41 332 -55 398 -12 53 -12 53 -36 38 -35 -24 -106 -20 -140 6 -38 30
-50 44 -78 98 -74 140 -50 358 44 413 72 43 158 1 206 -102 16 -33 32 -60 36
-60 3 -1 14 19 24 44 20 53 16 113 -17 250 -44 186 -27 269 65 314 44 22 62
25 160 24 61 -1 208 -14 326 -28 238 -30 477 -37 574 -17 86 17 188 68 234
115 54 55 90 136 104 236 23 157 -19 278 -134 387 -181 170 -502 251 -1028
259 -129 2 -263 0 -298 -5z"/>
<path d="M56433 26824 c-523 -52 -1354 -117 -1933 -149 -394 -22 -366 -17
-374 -68 -10 -62 -36 -150 -50 -169 -9 -12 -81 -28 -290 -62 -617 -102 -1043
-201 -1108 -257 l-23 -19 80 -77 c244 -234 542 -390 886 -464 87 -19 135 -23
294 -23 188 0 192 1 414 47 123 26 233 47 244 47 11 0 74 -27 141 -60 444
-219 926 -180 1304 104 260 196 492 520 641 893 33 83 49 132 87 266 7 22 -13
22 -313 -9z"/>
<path d="M16470 24694 c-129 -36 -370 -99 -535 -140 -342 -86 -406 -105 -490
-147 -145 -72 -300 -208 -452 -397 -132 -163 -680 -997 -1353 -2056 l-134
-212 -41 18 c-22 10 -548 244 -1170 520 -621 277 -1137 505 -1146 507 -21 6
-21 6 -64 -462 -19 -214 -42 -462 -50 -550 -8 -88 -15 -165 -15 -171 0 -23
1185 -602 1697 -830 837 -372 1253 -502 1398 -435 217 99 720 686 1340 1561
76 107 142 200 148 205 13 14 4 -268 -32 -925 -17 -300 -35 -662 -41 -805 -9
-213 -17 -298 -46 -474 -57 -347 -185 -987 -384 -1910 -68 -315 -88 -426 -79
-432 7 -4 51 -14 98 -23 424 -77 787 -84 1039 -20 142 35 266 105 337 186 108
126 244 573 329 1083 176 1058 190 2719 40 4710 -26 349 -75 903 -99 1120 -8
72 -15 133 -15 138 0 14 -48 4 -280 -59z"/>
<path d="M36960 22324 c-8 -1 -143 -24 -300 -49 -157 -25 -290 -48 -296 -49
-7 -3 4 -103 33 -297 23 -162 43 -302 43 -311 0 -10 -14 -21 -37 -28 -72 -23
-256 -120 -356 -187 -88 -59 -287 -234 -287 -252 0 -3 492 -5 1092 -4 l1093 3
23 32 c47 68 64 136 60 233 -3 79 -8 98 -38 153 -56 105 -151 173 -269 193
-105 17 -334 22 -485 10 -81 -7 -149 -11 -151 -9 -2 2 -20 130 -41 286 -40
295 -38 287 -84 276z"/>
<path d="M56294 20081 c-95 -23 -156 -75 -206 -176 -27 -53 -102 -255 -96
-259 2 -1 37 -15 78 -30 253 -95 535 -312 722 -555 33 -43 33 -43 238 -102
466 -135 808 -219 889 -219 46 0 77 28 67 62 -6 22 -186 167 -1219 986 -183
145 -343 269 -357 276 -36 19 -80 25 -116 17z"/>
<path d="M22640 17490 l0 -180 6565 0 6565 0 0 180 0 180 -6565 0 -6565 0 0
-180z"/>
<path d="M52690 7937 c0 -2 9 -39 20 -82 27 -104 24 -211 -6 -307 -5 -17 139
-18 2926 -18 3214 0 2966 -5 3029 60 40 43 54 89 49 165 -5 77 -39 135 -98
165 -39 20 -49 20 -2980 20 -1617 0 -2940 -2 -2940 -3z"/>
</g>
</svg>
